<svg width="14" height="14" viewBox="0 0 14 14" fill="none" xmlns="http://www.w3.org/2000/svg">
<path d="M7.0001 13.4C10.5347 13.4 13.4001 10.5346 13.4001 6.99998C13.4001 3.46535 10.5347 0.599976 7.0001 0.599976C3.46548 0.599976 0.600098 3.46535 0.600098 6.99998C0.600098 10.5346 3.46548 13.4 7.0001 13.4Z" fill="#080F17"/>
<path d="M5.44634 6.36166L7 4.808L8.5544 6.36234L9.4584 5.45834L7 3L4.5424 5.4576L5.44637 6.3616L5.44634 6.36166ZM3 7L3.90403 6.09584L4.808 6.99981L3.90397 7.90384L3 7ZM5.44634 7.63843L7 9.192L8.55437 7.6377L9.45885 8.54122L9.4584 8.5417L7 11L4.5424 8.5424L4.54112 8.54112L5.44643 7.63834L5.44634 7.63843ZM9.192 7.00038L10.096 6.09635L11 7.00032L10.096 7.90435L9.192 7.00038Z" fill="#FFD54F"/>
<path d="M7.91693 6.99959H7.91732L7.00007 6.08228L6.32208 6.76007L6.2442 6.83799L6.08356 6.99866L6.08228 6.99991L6.08356 7.00122L7.00007 7.91786L7.91738 7.00055L7.91783 7.00004L7.917 6.99959" fill="#FFD54F"/>
</svg>
