<svg width="12" height="20" viewBox="0 0 12 20" fill="none" xmlns="http://www.w3.org/2000/svg">
<rect x="10.2676" y="3.45068" width="1.72536" height="1.72536" fill="#68FFD2"/>
<rect x="5.12109" y="3.45068" width="1.72536" height="1.72536" fill="#68FFD2"/>
<rect x="3.41211" y="3.45068" width="1.72536" height="1.72536" fill="#68FFD2"/>
<rect x="1.70312" y="3.45068" width="1.72536" height="1.72536" fill="#68FFD2"/>
<rect x="8.53906" y="5.17603" width="1.72536" height="1.72536" fill="#68FFD2"/>
<rect x="8.53906" y="1.7251" width="1.72536" height="1.72536" fill="#68FFD2"/>
<rect x="6.81641" y="6.90161" width="1.72536" height="1.72536" fill="#68FFD2"/>
<rect x="6.81641" width="1.72536" height="1.72536" fill="#68FFD2"/>
<rect y="5.18176" width="1.72536" height="1.72536" fill="#68FFD2"/>
<rect y="6.89478" width="1.72536" height="1.72536" fill="#68FFD2"/>
<rect x="1.73242" y="16.532" width="1.72536" height="1.72536" transform="rotate(-180 1.73242 16.532)" fill="#68FFD2"/>
<rect x="6.87891" y="16.532" width="1.72536" height="1.72536" transform="rotate(-180 6.87891 16.532)" fill="#68FFD2"/>
<rect x="8.58789" y="16.532" width="1.72536" height="1.72536" transform="rotate(-180 8.58789 16.532)" fill="#68FFD2"/>
<rect x="10.2969" y="16.532" width="1.72536" height="1.72536" transform="rotate(-180 10.2969 16.532)" fill="#68FFD2"/>
<rect x="3.46094" y="14.8066" width="1.72536" height="1.72536" transform="rotate(-180 3.46094 14.8066)" fill="#68FFD2"/>
<rect x="3.46094" y="18.2576" width="1.72536" height="1.72536" transform="rotate(-180 3.46094 18.2576)" fill="#68FFD2"/>
<rect x="5.18359" y="13.0811" width="1.72536" height="1.72536" transform="rotate(-180 5.18359 13.0811)" fill="#68FFD2"/>
<rect x="5.18359" y="19.9827" width="1.72536" height="1.72536" transform="rotate(-180 5.18359 19.9827)" fill="#68FFD2"/>
<rect x="12" y="14.8009" width="1.72536" height="1.72536" transform="rotate(-180 12 14.8009)" fill="#68FFD2"/>
<rect x="12" y="13.0876" width="1.72536" height="1.72536" transform="rotate(-180 12 13.0876)" fill="#68FFD2"/>
</svg>
